{"title":"Z.for.Zachariah.2015.WEBRip.480p.x264.AAC-VYTO [P2PDL]","uid":12307970,"size":374261047,"categoryP":"video","categoryS":"movies","magnet":"?xt=urn:btih:8439734a3e36d1189668fc62fdcf07202cc909bd&amp;dn=Z.for.Zachariah.2015.WEBRip.480p.x264.AAC-VYTO+%5BP2PDL%5D&amp;tr=udp%3A%2F%2Ftracker.openbittorrent.com%3A80&amp;tr=udp%3A%2F%2Fopen.demonii.com%3A1337&amp;tr=udp%3A%2F%2Ftracker.coppersurfer.tk%3A6969&amp;tr=udp%3A%2F%2Fexodus.desync.com%3A6969","seeders":7,"leechers":5,"uploader":"ValidusVyto","files":7,"time":1440831952,"description":"____    ____ ____    ____ .___________.  ______   \n     /   /      /   / |           | /  __    \n    /   /      /   /  `---|  |----`|  |  |  | \n        /     _    _/       |  |     |  |  |  | \n       /        |  |         |  |     |  `--'  | \n    __/         |__|         |__|      ______/  \n                                                  \nPresenting Small Encodes with quality for years!\n                                                                                                   \n                                                                                                   \n\nZ.for.Zachariah.2015.WEBRip.480p.x264.AAC-VYTO\n\n\nGenre: Drama, Sci-Fi, Thriller &lt;a href=&quot;\nhttp://www.imdb.com/title/tt1598642/&quot; rel=&quot;nofollow&quot; target=&quot;_NEW&quot;&gt;\nhttp://www.imdb.com/title/tt1598642/&lt;/a&gt;\n\n\nGeneral\nFormat                         : MPEG-4\nFile size                      : 352 MiB\nDuration                       : 1h 37mn\nOverall bit rate               : 502 Kbps\n\nVideo\nFormat                         : AVC\nBit rate                       : 467 Kbps\nWidth                          : 720 pixels\nHeight                         : 304 pixels\nDisplay aspect ratio           : 2.35:1\nFrame rate mode                : Constant\nFrame rate                     : 23.976 fps\nBit depth                      : 8 bits\nStream size                    : 327 MiB (93%)\nWriting library                : x264 core 148 r2597\n\nAudio\nFormat                         : AAC\nBit rate mode                  : Variable\nBit rate                       : 31.9 Kbps\nChannel(s)                     : 2 channels \nChannel positions              : Front: L R \nSampling rate                  : 48.0 KHz\nStream size                    : 22.3 MiB (6%)\nLanguage                       : English\n\nSubtitle                       : N/a\nSource                     \t   : 720p.WEB-DL.DD5.1.H264\n\nScreenshots:\n &lt;a href=&quot;\nhttp://ititli.com/Y7&quot; rel=&quot;nofollow&quot; target=&quot;_NEW&quot;&gt;\nhttp://ititli.com/Y7&lt;/a&gt; &lt;a href=&quot;\nhttp://ititli.com/YC&quot; rel=&quot;nofollow&quot; target=&quot;_NEW&quot;&gt;\nhttp://ititli.com/YC&lt;/a&gt; &lt;a href=&quot;\nhttp://ititli.com/YF&quot; rel=&quot;nofollow&quot; target=&quot;_NEW&quot;&gt;\nhttp://ititli.com/YF&lt;/a&gt; &lt;a href=&quot;\nhttp://ititli.com/YJ&quot; rel=&quot;nofollow&quot; target=&quot;_NEW&quot;&gt;\nhttp://ititli.com/YJ&lt;/a&gt; &lt;a href=&quot;\nhttp://ititli.com/Y5&quot; rel=&quot;nofollow&quot; target=&quot;_NEW&quot;&gt;\nhttp://ititli.com/Y5&lt;/a&gt; &lt;a href=&quot;\nhttp://ititli.com/YB&quot; rel=&quot;nofollow&quot; target=&quot;_NEW&quot;&gt;\nhttp://ititli.com/YB&lt;/a&gt; &lt;a href=&quot;\nhttp://ititli.com/YN&quot; rel=&quot;nofollow&quot; target=&quot;_NEW&quot;&gt;\nhttp://ititli.com/YN&lt;/a&gt; &lt;a href=&quot;\nhttp://ititli.com/YP&quot; rel=&quot;nofollow&quot; target=&quot;_NEW&quot;&gt;\nhttp://ititli.com/YP&lt;/a&gt; &lt;a href=&quot;\nhttp://ititli.com/Yf&quot; rel=&quot;nofollow&quot; target=&quot;_NEW&quot;&gt;\nhttp://ititli.com/Yf&lt;/a&gt; &lt;a href=&quot;\nhttp://ititli.com/Yu&quot; rel=&quot;nofollow&quot; target=&quot;_NEW&quot;&gt;\nhttp://ititli.com/Yu&lt;/a&gt; &lt;a href=&quot;\nhttp://ititli.com/Yv&quot; rel=&quot;nofollow&quot; target=&quot;_NEW&quot;&gt;\nhttp://ititli.com/Yv&lt;/a&gt; &lt;a href=&quot;\nhttp://ititli.com/YR&quot; rel=&quot;nofollow&quot; target=&quot;_NEW&quot;&gt;\nhttp://ititli.com/YR&lt;/a&gt;\n\n----------------------------------------------------------------------------------------------------\n\n\nEncoder Notes: Looking For Early Access To Anything You Can Provide DVDScr, R5, DVDR, BluRay, Direct\nAudio, Music Releases and Seedboxes. If You Got anything to offer please contact us.\n\nSupport us by donating BC - 1FgwdzPsd1y25Gea8wP1qni35uGCtmkRCD","torrent":{"xt":"urn:btih:8439734a3e36d1189668fc62fdcf07202cc909bd","amp;dn":"Z.for.Zachariah.2015.WEBRip.480p.x264.AAC-VYTO+%5BP2PDL%5D","amp;tr":["udp%3A%2F%2Ftracker.openbittorrent.com%3A80","udp%3A%2F%2Fopen.demonii.com%3A1337","udp%3A%2F%2Ftracker.coppersurfer.tk%3A6969","udp%3A%2F%2Fexodus.desync.com%3A6969"],"infoHash":"8439734a3e36d1189668fc62fdcf07202cc909bd","infoHashBuffer":{"type":"Buffer","data":[132,57,115,74,62,54,209,24,150,104,252,98,253,207,7,32,44,201,9,189]},"announce":[],"urlList":[]}}